<svg xmlns="http://www.w3.org/2000/svg" xmlns:xlink="http://www.w3.org/1999/xlink">
  <!-- fix: спрайт контактных иконок -->
  <symbol id="icon-whatsapp" viewBox="0 0 24 24">
    <path fill="currentColor" d="M12 2a10 10 0 0 0-8.66 15.08L2 22l5.12-1.32A10 10 0 1 0 12 2Zm0 2a8 8 0 1 1-4.17 14.84l-.3-.18-3.01.78.8-2.92-.2-.3A8 8 0 0 1 12 4Zm3.73 3.91a.77.77 0 0 0-.53-.26h-.39c-.17 0-.34 0-.52.38s-.64 1.25-.7 1.34-.1.19-.2.3a7.29 7.29 0 0 1-.46.48c-.14.15-.28.31-.41.17a6.52 6.52 0 0 1-1.93-1.7 2.18 2.18 0 0 1-.44-1 .45.45 0 0 1 .14-.33c.15-.15.33-.4.49-.6s.24-.32.35-.54a.59.59 0 0 0-.03-.58c-.1-.17-.52-1.26-.72-1.72s-.39-.4-.54-.41h-.46a.89.89 0 0 0-.64.3 2.69 2.69 0 0 0-.86 2c0 1.18.87 2.32 1 2.48s1.69 2.65 4.07 3.61a3.94 3.94 0 0 0 1.87.47 1.63 1.63 0 0 0 1.06-.5 2.07 2.07 0 0 0 .46-1.3c0-.16 0-.26-.06-.36s-.24-.17-.5-.3Z"/>
  </symbol>
  <symbol id="icon-telegram" viewBox="0 0 24 24">
    <path fill="currentColor" d="M20.92 3.24a1 1 0 0 0-1.08-.14L3.4 11.44a.93.93 0 0 0 .1 1.72l4.46 1.55 1.7 5.15a1 1 0 0 0 1.7.35l2.45-2.67 4.38 3.2a1 1 0 0 0 1.56-.6l3-15a1 1 0 0 0-.83-1.2ZM9.86 13.3l7.54-6.33-5.84 8.63-.2.3-.1.11Zm1.28 4.59-.91-2.74 1.71 1.25Z"/>
  </symbol>
  <symbol id="icon-phone" viewBox="0 0 24 24">
    <path fill="currentColor" d="M6.62 2a1.94 1.94 0 0 0-1.9 2.27 16.56 16.56 0 0 0 4.23 8.19 16.56 16.56 0 0 0 8.19 4.23 1.94 1.94 0 0 0 2.27-1.9v-2.35a1 1 0 0 0-.86-1l-3.3-.55a1 1 0 0 0-1 .51l-.87 1.52a13.18 13.18 0 0 1-5.12-5.12l1.52-.87a1 1 0 0 0 .51-1l-.55-3.3a1 1 0 0 0-1-.86Zm0 2 .52 3 1.26 2.17-2.15 1.23a15.2 15.2 0 0 1-2.94-6.42Zm10.76 8.76 3 .52V16a15.2 15.2 0 0 1-6.42-2.94l1.23-2.15Z"/>
  </symbol>
  <symbol id="icon-mail" viewBox="0 0 24 24">
    <path fill="currentColor" d="M4 4h16a2 2 0 0 1 2 2v12a2 2 0 0 1-2 2H4a2 2 0 0 1-2-2V6a2 2 0 0 1 2-2Zm0 2v.51l8 5 8-5V6Zm16 12V9.3l-7.34 4.58a1 1 0 0 1-1.32 0L4 9.3V18Z"/>
  </symbol>
  <symbol id="icon-send" viewBox="0 0 24 24">
    <path fill="currentColor" d="M4 6h16a1 1 0 0 1 .74 1.67l-8 9a1 1 0 0 1-1.48 0l-8-9A1 1 0 0 1 4 6Zm0 3.2V18a1 1 0 0 0 1 1h14a1 1 0 0 0 1-1V9.2l-7.24 7.26a2 2 0 0 1-2.76 0Z"/>
  </symbol>
</svg>
